<svg t="1687829359950" class="icon" viewBox="0 0 1024 1024" version="1.1" xmlns="http://www.w3.org/2000/svg" p-id="3284" width="32" height="32"><path d="M896.305 427.593H465.084c-20.696 0-37.49 16.795-37.49 37.491l-0.027 93.753c0 20.696 16.768 37.49 37.49 37.517h262.514c20.696 0 37.49 16.794 37.49 37.49v18.746a112.498 112.498 0 0 1-112.498 112.498h-356.24a37.49 37.49 0 0 1-37.49-37.49V371.383A112.498 112.498 0 0 1 371.33 258.886l524.895-0.027c20.696 0 37.49-16.768 37.49-37.464l0.08-93.753h0.026a37.49 37.49 0 0 0-37.464-37.517h-0.026l-524.948 0.026C216.069 90.151 90.15 216.07 90.15 371.384v524.948c0 20.696 16.795 37.49 37.491 37.49h553.079a253.101 253.101 0 0 0 253.101-253.101v-215.61c0-20.697-16.794-37.491-37.49-37.491z" fill="#C71D23" p-id="3285"></path></svg>
