<svg t="1685266072097" class="icon" viewBox="0 0 1024 1024" version="1.1" xmlns="http://www.w3.org/2000/svg" p-id="4785" width="16" height="16"><path d="M640 456h-118.4V320a32 32 0 0 0-64 0v136H320a32 32 0 0 0 0 64h137.6V640a32 32 0 1 0 64 0v-120H640a32 32 0 1 0 0-64z" p-id="4786" fill="#cdcdcd"></path><path d="M919.264 905.984l-138.912-138.912C851.808 692.32 896 591.328 896 480c0-229.376-186.624-416-416-416S64 250.624 64 480s186.624 416 416 416c95.008 0 182.432-32.384 252.544-86.208l141.44 141.44a31.904 31.904 0 0 0 45.248 0 32 32 0 0 0 0.032-45.248zM128 480C128 285.92 285.92 128 480 128s352 157.92 352 352-157.92 352-352 352S128 674.08 128 480z" p-id="4787" fill="#cdcdcd"></path></svg>
