<svg width="50" height="50" viewBox="0 0 50 50" fill="none" xmlns="http://www.w3.org/2000/svg">
<path fill-rule="evenodd" clip-rule="evenodd" d="M24.9533 0C38.7343 0 49.9056 11.1711 49.9056 24.9527C49.9056 38.7342 38.7343 49.9053 24.9533 49.9053C11.1715 49.9053 0 38.7342 0 24.9527C0 11.1711 11.1715 0 24.9533 0ZM20.0861 15.1699H9.2233V34.8301H12.649V29.3032H23.3299C24.0056 29.3032 24.6459 29.2454 25.2514 29.1304C25.9117 29.0047 26.5299 28.8108 27.107 28.5484C27.7292 28.2656 28.3033 27.9032 28.8285 27.4609C28.9616 27.3489 29.0886 27.2336 29.2107 27.1156C30.1211 26.2347 30.7176 25.189 30.9994 23.9782C31.1054 23.5239 31.1663 23.0459 31.1836 22.5454C31.187 22.4478 31.1893 22.3502 31.1893 22.2509C31.1893 21.9206 31.1706 21.6007 31.1338 21.2905H28.2732C28.104 21.2905 27.9402 21.2985 27.7814 21.3129C27.8459 21.5967 27.8783 21.8999 27.8783 22.2222C27.8783 22.3322 27.8746 22.4398 27.8669 22.5454C27.7987 23.5092 27.4186 24.2941 26.7268 24.8992C26.679 24.941 26.6306 24.9818 26.5811 25.0209C25.9696 25.5083 25.2487 25.7938 24.4192 25.879C24.243 25.8971 24.0625 25.9068 23.8769 25.9068H12.649V18.5954H17.173C17.508 17.9917 17.9019 17.414 18.3475 16.8761C18.6397 16.5231 18.9564 16.1838 19.288 15.8676C19.5458 15.6219 19.812 15.3895 20.0861 15.1699ZM40.7767 23.9078H33.7666C33.7322 24.1134 33.6928 24.3167 33.6464 24.5157C33.4361 25.4157 33.1 26.2558 32.6421 27.0304H37.3569V31.2993H28.3038C27.985 31.2993 27.6759 31.2823 27.3759 31.2487C26.8659 31.4261 26.3352 31.5675 25.7898 31.6709C25.0218 31.8164 24.2074 31.8902 23.369 31.8902H21.2379C23.103 33.7691 25.458 34.7087 28.3038 34.7087H40.7767V23.9078ZM40.7767 15.0485H28.325C28.1905 15.0485 28.0571 15.0509 27.9247 15.0545C27.1566 15.0769 26.4269 15.1637 25.7354 15.3149C23.9924 15.6958 22.4916 16.4863 21.2334 17.6863C20.9745 17.9333 20.7346 18.1917 20.512 18.4604C20.1429 18.9062 19.8235 19.3817 19.5546 19.8875C19.3416 20.2877 19.16 20.7069 19.0099 21.1447C18.8032 21.7467 18.6565 22.385 18.568 23.0583H22.0999C22.3751 21.9818 22.9072 21.0508 23.6975 20.2664C23.7871 20.1778 23.8782 20.0929 23.9711 20.011C24.0173 19.9704 24.0639 19.9301 24.1108 19.8908C24.6479 19.443 25.2426 19.1003 25.8948 18.8629C26.6315 18.5946 27.4415 18.4604 28.325 18.4604H40.7767V15.0485Z" fill="#F8B327"/>
</svg>
